HIERARCHY
ROOT reference
{
  OFFSET 0 0 0
  CHANNELS 6 Xposition Yposition Zposition Zrotation Xrotation Yrotation
  JOINT Hips
  {
    OFFSET 7.65452 84.3 247.087
    CHANNELS 6 Xposition Yposition Zposition Zrotation Xrotation Yrotation
    JOINT Spine
    {
      OFFSET 0 7.59534 0
      CHANNELS 6 Xposition Yposition Zposition Zrotation Xrotation Yrotation
      JOINT Spine1
      {
        OFFSET 0 23.5015 0
        CHANNELS 6 Xposition Yposition Zposition Zrotation Xrotation Yrotation
        JOINT Neck
        {
          OFFSET 0 23.405 2.12773
          CHANNELS 6 Xposition Yposition Zposition Zrotation Xrotation Yrotation
          JOINT Head
          {
            OFFSET 0 12.9677 -1.85252
            CHANNELS 6 Xposition Yposition Zposition Zrotation Xrotation Yrotation
            End Site
            {
              OFFSET 0 23.1565 0
            }
          }
        }
        JOINT LeftShoulder
        {
          OFFSET 3.62206 22.4732 -0.132728
          CHANNELS 6 Xposition Yposition Zposition Zrotation Xrotation Yrotation
          JOINT LeftArm
          {
            OFFSET 8.17784 0 0
            CHANNELS 6 Xposition Yposition Zposition Zrotation Xrotation Yrotation
            JOINT LeftForeArm
            {
              OFFSET 30.104 0 0
              CHANNELS 6 Xposition Yposition Zposition Zrotation Xrotation Yrotation
              JOINT LeftHand
              {
                OFFSET 24.4664 0 0
                CHANNELS 6 Xposition Yposition Zposition Zrotation Xrotation Yrotation
                End Site
                {
                  OFFSET 13.8939 0 0
                }
              }
            }
          }
        }
        JOINT RightShoulder
        {
          OFFSET -3.6336 22.4732 -0.132728
          CHANNELS 6 Xposition Yposition Zposition Zrotation Xrotation Yrotation
          JOINT RightArm
          {
            OFFSET -8.17784 0 0
            CHANNELS 6 Xposition Yposition Zposition Zrotation Xrotation Yrotation
            JOINT RightForeArm
            {
              OFFSET -30.104 0 0
              CHANNELS 6 Xposition Yposition Zposition Zrotation Xrotation Yrotation
              JOINT RightHand
              {
                OFFSET -24.4664 0 0
                CHANNELS 6 Xposition Yposition Zposition Zrotation Xrotation Yrotation
                End Site
                {
                  OFFSET -13.8939 0 0
                }
              }
            }
          }
        }
      }
    }
    JOINT LeftUpLeg
    {
      OFFSET 9.26261 0 0
      CHANNELS 6 Xposition Yposition Zposition Zrotation Xrotation Yrotation
      JOINT LeftLeg
      {
        OFFSET 0 -35.4897 0
        CHANNELS 6 Xposition Yposition Zposition Zrotation Xrotation Yrotation
        JOINT LeftFoot
        {
          OFFSET 0 -38.2023 0
          CHANNELS 6 Xposition Yposition Zposition Zrotation Xrotation Yrotation
          JOINT LeftToeBase
          {
            OFFSET 0 -6.0207 13.8939
            CHANNELS 6 Xposition Yposition Zposition Zrotation Xrotation Yrotation
            End Site
            {
              OFFSET 0 0 3.70504
            }
          }
        }
      }
    }
    JOINT RightUpLeg
    {
      OFFSET -9.26261 0 0
      CHANNELS 6 Xposition Yposition Zposition Zrotation Xrotation Yrotation
      JOINT RightLeg
      {
        OFFSET 0 -35.4897 0
        CHANNELS 6 Xposition Yposition Zposition Zrotation Xrotation Yrotation
        JOINT RightFoot
        {
          OFFSET 0 -38.2023 0
          CHANNELS 6 Xposition Yposition Zposition Zrotation Xrotation Yrotation
          JOINT RightToeBase
          {
            OFFSET 0 -6.0207 13.8939
            CHANNELS 6 Xposition Yposition Zposition Zrotation Xrotation Yrotation
            End Site
            {
              OFFSET 0 0 3.70504
            }
          }
        }
      }
    }
  }
}
MOTION
Frames:	16
Frame Time:	0.004
0 0 0 0 0 -0 0 85.6791 0 0 0 -0 0 7.59534 0 0 0 -0 0 23.5015 0 0 0 -0 0 23.405 2.12773 0 0 -0 0 12.9677 -1.85252 0 0 -0 3.62206 22.4732 -0.132728 0 0 -0 8.17784 0 0 0 0 -0 30.104 0 0 0 0 -0 24.4664 0 0 0 0 -0 -3.6336 22.4732 -0.132728 0 0 -0 -8.17784 0 0 0 0 -0 -30.104 0 0 0 0 -0 -24.4664 0 0 0 0 -0 9.26261 0 0 0 0 -0 0 -35.4897 0 0 0 -0 0 -38.2023 0 0 0 -0 0 -6.0207 13.8939 0 0 -0 -9.26261 0 0 0 0 -0 0 -35.4897 0 0 0 -0 0 -38.2023 0 0 0 -0 0 -6.0207 13.8939 0 0 -0 
0 0 0 0 0 -0 0 85.6791 0 0 0 -0 0 7.59534 0 0 0 -0 0 23.5015 0 0 0 -0 0 23.405 2.12773 0 0 -0 0 12.9677 -1.85252 0 0 -0 3.62206 22.4732 -0.132728 0 0 -0 8.17784 0 0 0 0 -0 30.104 0 0 0 0 -0 24.4664 0 0 0 0 -0 -3.6336 22.4732 -0.132728 0 0 -0 -8.17784 0 0 0 0 -0 -30.104 0 0 0 0 -0 -24.4664 0 0 0 0 -0 9.26261 0 0 0 0 -0 0 -35.4897 0 0 0 -0 0 -38.2023 0 0 0 -0 0 -6.0207 13.8939 0 0 -0 -9.26261 0 0 0 0 -0 0 -35.4897 0 0 0 -0 0 -38.2023 0 0 0 -0 0 -6.0207 13.8939 0 0 -0 
0 0 0 0 0 -0 0 85.6791 0 0 0 -0 0 7.59534 0 0 0 -0 0 23.5015 0 0 0 -0 0 23.405 2.12773 0 0 -0 0 12.9677 -1.85252 0 0 -0 3.62206 22.4732 -0.132728 0 0 -0 8.17784 0 0 0 0 -0 30.104 0 0 0 0 -0 24.4664 0 0 0 0 -0 -3.6336 22.4732 -0.132728 0 0 -0 -8.17784 0 0 0 0 -0 -30.104 0 0 0 0 -0 -24.4664 0 0 0 0 -0 9.26261 0 0 0 0 -0 0 -35.4897 0 0 0 -0 0 -38.2023 0 0 0 -0 0 -6.0207 13.8939 0 0 -0 -9.26261 0 0 0 0 -0 0 -35.4897 0 0 0 -0 0 -38.2023 0 0 0 -0 0 -6.0207 13.8939 0 0 -0 
0 0 0 0 0 -0 0 85.6791 0 0 0 -0 0 7.59534 0 0 0 -0 0 23.5015 0 0 0 -0 0 23.405 2.12773 0 0 -0 0 12.9677 -1.85252 0 0 -0 3.62206 22.4732 -0.132728 0 0 -0 8.17784 0 0 0 0 -0 30.104 0 0 0 0 -0 24.4664 0 0 0 0 -0 -3.6336 22.4732 -0.132728 0 0 -0 -8.17784 0 0 0 0 -0 -30.104 0 0 0 0 -0 -24.4664 0 0 0 0 -0 9.26261 0 0 0 0 -0 0 -35.4897 0 0 0 -0 0 -38.2023 0 0 0 -0 0 -6.0207 13.8939 0 0 -0 -9.26261 0 0 0 0 -0 0 -35.4897 0 0 0 -0 0 -38.2023 0 0 0 -0 0 -6.0207 13.8939 0 0 -0 
0 0 0 0 0 -0 0 85.6791 0 0 0 -0 0 7.59534 0 0 0 -0 0 23.5015 0 0 0 -0 0 23.405 2.12773 0 0 -0 0 12.9677 -1.85252 0 0 -0 3.62206 22.4732 -0.132728 0 0 -0 8.17784 0 0 0 0 -0 30.104 0 0 0 0 -0 24.4664 0 0 0 0 -0 -3.6336 22.4732 -0.132728 0 0 -0 -8.17784 0 0 0 0 -0 -30.104 0 0 0 0 -0 -24.4664 0 0 0 0 -0 9.26261 0 0 0 0 -0 0 -35.4897 0 0 0 -0 0 -38.2023 0 0 0 -0 0 -6.0207 13.8939 0 0 -0 -9.26261 0 0 0 0 -0 0 -35.4897 0 0 0 -0 0 -38.2023 0 0 0 -0 0 -6.0207 13.8939 0 0 -0 
0 0 0 0 0 -0 0 85.6791 0 0 0 -0 0 7.59534 0 0 0 -0 0 23.5015 0 0 0 -0 0 23.405 2.12773 0 0 -0 0 12.9677 -1.85252 0 0 -0 3.62206 22.4732 -0.132728 0 0 -0 8.17784 0 0 0 0 -0 30.104 0 0 0 0 -0 24.4664 0 0 0 0 -0 -3.6336 22.4732 -0.132728 0 0 -0 -8.17784 0 0 0 0 -0 -30.104 0 0 0 0 -0 -24.4664 0 0 0 0 -0 9.26261 0 0 0 0 -0 0 -35.4897 0 0 0 -0 0 -38.2023 0 0 0 -0 0 -6.0207 13.8939 0 0 -0 -9.26261 0 0 0 0 -0 0 -35.4897 0 0 0 -0 0 -38.2023 0 0 0 -0 0 -6.0207 13.8939 0 0 -0 
0 0 0 0 0 -0 0 85.6791 0 0 0 -0 0 7.59534 0 0 0 -0 0 23.5015 0 0 0 -0 0 23.405 2.12773 0 0 -0 0 12.9677 -1.85252 0 0 -0 3.62206 22.4732 -0.132728 0 0 -0 8.17784 0 0 0 0 -0 30.104 0 0 0 0 -0 24.4664 0 0 0 0 -0 -3.6336 22.4732 -0.132728 0 0 -0 -8.17784 0 0 0 0 -0 -30.104 0 0 0 0 -0 -24.4664 0 0 0 0 -0 9.26261 0 0 0 0 -0 0 -35.4897 0 0 0 -0 0 -38.2023 0 0 0 -0 0 -6.0207 13.8939 0 0 -0 -9.26261 0 0 0 0 -0 0 -35.4897 0 0 0 -0 0 -38.2023 0 0 0 -0 0 -6.0207 13.8939 0 0 -0 
0 0 0 0 0 -0 0 85.6791 0 0 0 -0 0 7.59534 0 0 0 -0 0 23.5015 0 0 0 -0 0 23.405 2.12773 0 0 -0 0 12.9677 -1.85252 0 0 -0 3.62206 22.4732 -0.132728 0 0 -0 8.17784 0 0 0 0 -0 30.104 0 0 0 0 -0 24.4664 0 0 0 0 -0 -3.6336 22.4732 -0.132728 0 0 -0 -8.17784 0 0 0 0 -0 -30.104 0 0 0 0 -0 -24.4664 0 0 0 0 -0 9.26261 0 0 0 0 -0 0 -35.4897 0 0 0 -0 0 -38.2023 0 0 0 -0 0 -6.0207 13.8939 0 0 -0 -9.26261 0 0 0 0 -0 0 -35.4897 0 0 0 -0 0 -38.2023 0 0 0 -0 0 -6.0207 13.8939 0 0 -0 
0 0 0 0 0 -0 0 85.6791 0 0 0 -0 0 7.59534 0 0 0 -0 0 23.5015 0 0 0 -0 0 23.405 2.12773 0 0 -0 0 12.9677 -1.85252 0 0 -0 3.62206 22.4732 -0.132728 0 0 -0 8.17784 0 0 0 0 -0 30.104 0 0 0 0 -0 24.4664 0 0 0 0 -0 -3.6336 22.4732 -0.132728 0 0 -0 -8.17784 0 0 0 0 -0 -30.104 0 0 0 0 -0 -24.4664 0 0 0 0 -0 9.26261 0 0 0 0 -0 0 -35.4897 0 0 0 -0 0 -38.2023 0 0 0 -0 0 -6.0207 13.8939 0 0 -0 -9.26261 0 0 0 0 -0 0 -35.4897 0 0 0 -0 0 -38.2023 0 0 0 -0 0 -6.0207 13.8939 0 0 -0 
0 0 0 0 0 -0 -15.2854 75.3481 -202.41 -0.462188 0.134354 -3.51872 0 7.59534 2.84217e-014 0.130463 -5.4894 0.135219 0 23.5015 0 1.38104 -0.903682 0.139876 0 23.405 2.12773 -3.75943 26.8735 -3.4632 0 12.9677 -1.85252 0.468617 -2.72294 -3.91551 3.62206 22.4732 -0.132728 11.0672 2.89115 14.8053 8.17784 0 0 -18.2471 -1.59216 -2.19299 30.104 0 2.84217e-014 2.92686 0.293946 -3.05736 24.4664 0 0 3.62496 0.304608 -2.13691 -3.6336 22.4732 -0.132728 -8.72062 3.2128 17.1184 -8.17784 -2.84217e-014 2.84217e-014 16.7841 -4.06734 -8.5711 -30.104 0 0 -4.46364 -0.483295 1.11892 -24.4664 0 0 3.66219 -0.375843 1.99687 9.26261 -1.42109e-014 2.84217e-014 3.40178 10.4276 -2.61007 3.55271e-015 -35.4897 -2.84217e-014 -0.609126 -5.87183 -7.30238 7.10543e-015 -38.2023 2.84217e-014 -0.517806 -7.20454 21.9106 0 -6.0207 13.8939 4.96962e-017 7.95139e-016 -0 -9.26261 1.42109e-014 0 -3.57371 0.115596 0.441447 0 -35.4897 0 -1.51864 8.27111 -0.823285 7.10543e-015 -38.2023 0 1.99933 -8.41076 -0.427014 0 -6.0207 13.8939 5.46658e-016 4.96962e-017 7.95139e-016 
0 0 0 0 0 -0 -15.288 75.348 -202.41 -0.464706 0.141277 -3.52081 0 7.59534 0 0.130494 -5.49688 0.136737 3.55271e-015 23.5015 0 1.38471 -0.899635 0.141542 -3.55271e-015 23.405 2.12773 -3.76793 26.8816 -3.46408 0 12.9677 -1.85252 0.472312 -2.74838 -3.91691 3.62206 22.4732 -0.132728 11.0527 2.88964 14.8196 8.17784 0 0 -18.2326 -1.60291 -2.20755 30.104 -2.84217e-014 -2.84217e-014 2.92508 0.297099 -3.05881 24.4664 -2.84217e-014 0 3.63676 0.307807 -2.12238 -3.6336 22.4732 -0.132728 -8.72105 3.21443 17.1178 -8.17784 2.84217e-014 0 16.7783 -4.08388 -8.56892 -30.104 0 0 -4.45683 -0.476761 1.12267 -24.4664 0 0 3.62619 -0.370563 1.97667 9.26261 -1.42109e-014 0 3.40475 10.4196 -2.61126 -3.55271e-015 -35.4897 0 -0.611582 -5.87228 -7.26823 0 -38.2023 2.84217e-014 -0.473942 -7.19751 21.8826 0 -6.0207 13.8939 -1.10348e-032 -3.97569e-016 -1.59028e-015 -9.26261 0 0 -3.56942 0.111336 0.469111 0 -35.4897 0 -1.51147 8.26758 -0.838842 0 -38.2023 0 2.00408 -8.40911 -0.438847 0 -6.0207 13.8939 3.13707e-016 9.93923e-017 -7.95139e-016 
0 0 0 0 0 -0 -15.2891 75.3478 -202.407 -0.465395 0.141558 -3.52221 0 7.59534 0 0.131011 -5.49631 0.136672 0 23.5015 -2.84217e-014 1.39018 -0.899071 0.141134 -3.55271e-015 23.405 2.12773 -3.75624 26.8811 -3.46054 0 12.9677 -1.85252 0.44729 -2.7503 -3.91445 3.62206 22.4732 -0.132728 11.0479 2.89192 14.8187 8.17784 0 -2.84217e-014 -18.2331 -1.62364 -2.20855 30.104 0 0 2.92581 0.301359 -3.06204 24.4664 0 0 3.64103 0.312394 -2.11343 -3.6336 22.4732 -0.132728 -8.72235 3.21562 17.1274 -8.17784 -2.84217e-014 0 16.7718 -4.0931 -8.56852 -30.104 0 0 -4.44937 -0.459042 1.12087 -24.4664 2.84217e-014 0 3.60993 -0.353125 1.9858 9.26261 1.42109e-014 0 3.41273 10.4216 -2.62616 0 -35.4897 0 -0.632339 -5.87144 -7.27161 0 -38.2023 0 -0.49142 -7.22253 21.9322 3.55271e-015 -6.0207 13.8939 -9.93923e-017 0 -0 -9.26261 -1.42109e-014 0 -3.56872 0.124174 0.435966 -7.10543e-015 -35.4897 2.84217e-014 -1.52077 8.26875 -0.768729 0 -38.2023 -2.84217e-014 2.00277 -8.41706 -0.455009 0 -6.0207 13.8939 1.32316e-015 0 7.95139e-016 
0 0 0 0 0 -0 -15.2899 75.3476 -202.405 -0.465993 0.141202 -3.53032 3.55271e-015 7.59534 0 0.132085 -5.49618 0.139432 0 23.5015 -2.84217e-014 1.39444 -0.898801 0.143869 0 23.405 2.12773 -3.77459 26.8802 -3.45692 0 12.9677 -1.85252 0.458852 -2.75697 -3.91212 3.62206 22.4732 -0.132728 11.0389 2.89251 14.8229 8.17784 0 0 -18.2319 -1.62819 -2.20874 30.104 0 2.84217e-014 2.92618 0.288707 -3.06625 24.4664 0 -2.84217e-014 3.63868 0.299666 -2.12408 -3.6336 22.4732 -0.132728 -8.72214 3.21417 17.125 -8.17784 -2.84217e-014 -2.84217e-014 16.771 -4.09632 -8.57064 -30.104 0 2.84217e-014 -4.44996 -0.458029 1.11779 -24.4664 0 0 3.62158 -0.351925 1.98316 9.26261 0 2.84217e-014 3.41287 10.4249 -2.63798 0 -35.4897 2.84217e-014 -0.622636 -5.87043 -7.29408 0 -38.2023 0 -0.482174 -7.21142 21.9405 0 -6.0207 13.8939 -1.10348e-032 -3.97569e-016 -1.59028e-015 -9.26261 -2.84217e-014 0 -3.56839 0.106547 0.450126 -7.10543e-015 -35.4897 0 -1.51259 8.27007 -0.821639 0 -38.2023 2.84217e-014 2.00528 -8.39428 -0.424027 0 -6.0207 13.8939 -6.64686e-016 4.96962e-017 -1.59028e-015 
0 0 0 0 0 -0 -15.2909 75.3475 -202.402 -0.466534 0.1405 -3.53573 0 7.59534 0 0.132736 -5.49605 0.142695 -3.55271e-015 23.5015 2.84217e-014 1.39056 -0.898711 0.147168 0 23.405 2.12773 -3.75876 26.8787 -3.45714 0 12.9677 -1.85252 0.439548 -2.77245 -3.91418 3.62206 22.4732 -0.132728 11.0411 2.88129 14.8277 8.17784 -2.84217e-014 0 -18.2311 -1.6466 -2.20835 30.104 0 0 2.92766 0.291128 -3.07361 24.4664 0 0 3.65055 0.302062 -2.12711 -3.6336 22.4732 -0.132728 -8.71848 3.19857 17.1371 -8.17784 -2.84217e-014 0 16.7723 -4.0853 -8.5837 -30.104 -2.84217e-014 2.84217e-014 -4.45222 -0.451122 1.11391 -24.4664 0 -2.84217e-014 3.66567 -0.343239 2.01847 9.26261 1.42109e-014 0 3.39943 10.4289 -2.62078 3.55271e-015 -35.4897 0 -0.609999 -5.87011 -7.25156 0 -38.2023 0 -0.505412 -7.21157 21.9015 3.55271e-015 -6.0207 13.8939 0 3.97569e-016 -0 -9.26261 1.42109e-014 -2.84217e-014 -3.56849 0.116367 0.475946 -7.10543e-015 -35.4897 2.84217e-014 -1.51365 8.27175 -0.811351 -7.10543e-015 -38.2023 -5.68434e-014 1.98914 -8.42588 -0.441383 0 -6.0207 13.8939 -9.59757e-016 -4.96962e-017 7.95139e-016 
0 0 0 0 0 -0 -15.2932 75.3473 -202.4 -0.467033 0.139743 -3.53769 -3.55271e-015 7.59534 0 0.132116 -5.49593 0.145528 0 23.5015 -2.84217e-014 1.37921 -0.898685 0.150082 -3.55271e-015 23.405 2.12773 -3.77393 26.8771 -3.45093 -7.10543e-015 12.9677 -1.85252 0.479351 -2.74817 -3.89902 3.62206 22.4732 -0.132728 11.0591 2.88755 14.8319 8.17784 0 2.84217e-014 -18.2313 -1.69296 -2.20758 30.104 0 -2.84217e-014 2.91307 0.307976 -3.08302 24.4664 0 0 3.64904 0.31848 -2.13593 -3.6336 22.4732 -0.132728 -8.71949 3.20047 17.1373 -8.17784 -2.84217e-014 0 16.775 -4.07558 -8.57458 -30.104 0 0 -4.45411 -0.443039 1.10468 -24.4664 0 -2.84217e-014 3.65641 -0.335864 2.01044 9.26261 1.42109e-014 0 3.40849 10.4325 -2.61881 -3.55271e-015 -35.4897 0 -0.613467 -5.86848 -7.28118 7.10543e-015 -38.2023 2.84217e-014 -0.491003 -7.2124 21.9312 -3.55271e-015 -6.0207 13.8939 4.96962e-017 0 -1.59028e-015 -9.26261 0 0 -3.5683 0.111209 0.473295 0 -35.4897 2.84217e-014 -1.50816 8.27341 -0.847405 7.10543e-015 -38.2023 0 1.97282 -8.40613 -0.413688 0 -6.0207 13.8939 -9.31803e-017 4.96962e-017 7.95139e-016 
0 0 0 0 0 -0 -15.2955 75.3471 -202.397 -0.467489 0.139221 -3.54226 0 7.59534 0 0.12274 -5.49582 0.147551 0 23.5015 0 1.39231 -0.89861 0.152307 0 23.405 2.12773 -3.78201 26.8755 -3.44509 0 12.9677 -1.85252 0.473778 -2.75525 -3.89778 3.62206 22.4732 -0.132728 11.0486 2.87703 14.8309 8.17784 0 0 -18.23 -1.70164 -2.20657 30.104 0 0 2.91847 0.306306 -3.08791 24.4664 0 -2.84217e-014 3.63915 0.317023 -2.14584 -3.6336 22.4732 -0.132728 -8.72126 3.20348 17.1446 -8.17784 0 0 16.7751 -4.07257 -8.57588 -30.104 2.84217e-014 -2.84217e-014 -4.4533 -0.430111 1.09837 -24.4664 0 0 3.65971 -0.322788 2.0275 9.26261 0 0 3.40766 10.435 -2.6307 3.55271e-015 -35.4897 0 -0.615888 -5.86659 -7.28513 -7.10543e-015 -38.2023 0 -0.515824 -7.2257 21.9486 0 -6.0207 13.8939 -4.96962e-017 0 -0 -9.26261 0 2.84217e-014 -3.56794 0.113121 0.486528 0 -35.4897 0 -1.51081 8.2751 -0.827244 0 -38.2023 0 2.01742 -8.40804 -0.42789 0 -6.0207 13.8939 4.28629e-016 0 7.95139e-016 
